<mxfile host="app.diagrams.net" modified="2024-02-03T17:03:50.786Z" agent="Mozilla/5.0 (Windows NT 10.0; Win64; x64) AppleWebKit/537.36 (KHTML, like Gecko) Chrome/121.0.0.0 Safari/537.36" etag="fjjtYACJBRIhXg-xP0Nt" version="23.0.2" type="device">
  <diagram name="Page-1" id="pftNuO-dd1emlu9t2iw9">
    <mxGraphModel dx="1050" dy="557" grid="0" gridSize="10" guides="1" tooltips="1" connect="1" arrows="1" fold="1" page="1" pageScale="1" pageWidth="827" pageHeight="1169" math="0" shadow="0">
      <root>
        <mxCell id="0" />
        <mxCell id="1" parent="0" />
        <mxCell id="CePjHbMSi5g3igxXNFq3-1" value="" style="ellipse;html=1;shape=startState;fillColor=#000000;strokeColor=#ff0000;" vertex="1" parent="1">
          <mxGeometry x="393" y="9" width="30" height="30" as="geometry" />
        </mxCell>
        <mxCell id="CePjHbMSi5g3igxXNFq3-2" value="" style="edgeStyle=orthogonalEdgeStyle;html=1;verticalAlign=bottom;endArrow=open;endSize=8;strokeColor=#ff0000;rounded=0;entryX=0.5;entryY=0;entryDx=0;entryDy=0;" edge="1" source="CePjHbMSi5g3igxXNFq3-1" parent="1" target="CePjHbMSi5g3igxXNFq3-5">
          <mxGeometry relative="1" as="geometry">
            <mxPoint x="408" y="99" as="targetPoint" />
          </mxGeometry>
        </mxCell>
        <mxCell id="CePjHbMSi5g3igxXNFq3-3" value="Start" style="text;html=1;strokeColor=none;fillColor=none;align=center;verticalAlign=middle;whiteSpace=wrap;rounded=0;" vertex="1" parent="1">
          <mxGeometry x="426" y="9" width="60" height="30" as="geometry" />
        </mxCell>
        <mxCell id="CePjHbMSi5g3igxXNFq3-4" value="&lt;font style=&quot;font-size: 20px;&quot;&gt;Software working&lt;/font&gt;" style="text;html=1;strokeColor=none;fillColor=none;align=center;verticalAlign=middle;whiteSpace=wrap;rounded=0;" vertex="1" parent="1">
          <mxGeometry x="15" y="9" width="201" height="30" as="geometry" />
        </mxCell>
        <mxCell id="CePjHbMSi5g3igxXNFq3-8" style="edgeStyle=orthogonalEdgeStyle;rounded=0;orthogonalLoop=1;jettySize=auto;html=1;" edge="1" parent="1" source="CePjHbMSi5g3igxXNFq3-5" target="CePjHbMSi5g3igxXNFq3-7">
          <mxGeometry relative="1" as="geometry" />
        </mxCell>
        <mxCell id="CePjHbMSi5g3igxXNFq3-5" value="User Books an Appointment(Frontend)" style="rounded=1;whiteSpace=wrap;html=1;fillColor=#dae8fc;strokeColor=#6c8ebf;" vertex="1" parent="1">
          <mxGeometry x="262.5" y="69" width="291" height="60" as="geometry" />
        </mxCell>
        <mxCell id="CePjHbMSi5g3igxXNFq3-11" style="edgeStyle=orthogonalEdgeStyle;rounded=0;orthogonalLoop=1;jettySize=auto;html=1;entryX=0.5;entryY=0;entryDx=0;entryDy=0;" edge="1" parent="1" source="CePjHbMSi5g3igxXNFq3-7" target="CePjHbMSi5g3igxXNFq3-10">
          <mxGeometry relative="1" as="geometry" />
        </mxCell>
        <mxCell id="CePjHbMSi5g3igxXNFq3-7" value="User Uploads Reports&lt;br&gt;(Frontend sends a request to the Backend API)" style="rounded=1;whiteSpace=wrap;html=1;fillColor=#e1d5e7;strokeColor=#9673a6;" vertex="1" parent="1">
          <mxGeometry x="262.5" y="157" width="291" height="60" as="geometry" />
        </mxCell>
        <mxCell id="CePjHbMSi5g3igxXNFq3-13" style="edgeStyle=orthogonalEdgeStyle;rounded=0;orthogonalLoop=1;jettySize=auto;html=1;entryX=0.5;entryY=0;entryDx=0;entryDy=0;" edge="1" parent="1" source="CePjHbMSi5g3igxXNFq3-10" target="CePjHbMSi5g3igxXNFq3-12">
          <mxGeometry relative="1" as="geometry" />
        </mxCell>
        <mxCell id="CePjHbMSi5g3igxXNFq3-10" value="Backend Handles Appointment Request" style="rounded=1;whiteSpace=wrap;html=1;fillColor=#e1d5e7;strokeColor=#9673a6;" vertex="1" parent="1">
          <mxGeometry x="262.5" y="246" width="291" height="60" as="geometry" />
        </mxCell>
        <mxCell id="CePjHbMSi5g3igxXNFq3-16" style="edgeStyle=orthogonalEdgeStyle;rounded=0;orthogonalLoop=1;jettySize=auto;html=1;entryX=0.5;entryY=0;entryDx=0;entryDy=0;" edge="1" parent="1" source="CePjHbMSi5g3igxXNFq3-12" target="CePjHbMSi5g3igxXNFq3-15">
          <mxGeometry relative="1" as="geometry" />
        </mxCell>
        <mxCell id="CePjHbMSi5g3igxXNFq3-12" value="DynamoDB stores personal information" style="rounded=1;whiteSpace=wrap;html=1;fillColor=#fff2cc;strokeColor=#d6b656;" vertex="1" parent="1">
          <mxGeometry x="262.5" y="341" width="291" height="60" as="geometry" />
        </mxCell>
        <mxCell id="CePjHbMSi5g3igxXNFq3-18" style="edgeStyle=orthogonalEdgeStyle;rounded=0;orthogonalLoop=1;jettySize=auto;html=1;entryX=0.5;entryY=0;entryDx=0;entryDy=0;" edge="1" parent="1" source="CePjHbMSi5g3igxXNFq3-15" target="CePjHbMSi5g3igxXNFq3-17">
          <mxGeometry relative="1" as="geometry">
            <mxPoint x="183.5999755859375" y="597.7999877929688" as="targetPoint" />
          </mxGeometry>
        </mxCell>
        <mxCell id="CePjHbMSi5g3igxXNFq3-21" style="edgeStyle=orthogonalEdgeStyle;rounded=0;orthogonalLoop=1;jettySize=auto;html=1;" edge="1" parent="1" source="CePjHbMSi5g3igxXNFq3-15" target="CePjHbMSi5g3igxXNFq3-20">
          <mxGeometry relative="1" as="geometry" />
        </mxCell>
        <mxCell id="CePjHbMSi5g3igxXNFq3-15" value="Admin Checks Appointment Requests" style="rhombus;whiteSpace=wrap;html=1;fillColor=#dae8fc;strokeColor=#6c8ebf;" vertex="1" parent="1">
          <mxGeometry x="287" y="436" width="242" height="145" as="geometry" />
        </mxCell>
        <mxCell id="CePjHbMSi5g3igxXNFq3-26" style="edgeStyle=orthogonalEdgeStyle;rounded=0;orthogonalLoop=1;jettySize=auto;html=1;entryX=0.5;entryY=0;entryDx=0;entryDy=0;" edge="1" parent="1" source="CePjHbMSi5g3igxXNFq3-17" target="CePjHbMSi5g3igxXNFq3-25">
          <mxGeometry relative="1" as="geometry" />
        </mxCell>
        <mxCell id="CePjHbMSi5g3igxXNFq3-17" value="Admin Approves" style="rounded=1;whiteSpace=wrap;html=1;fillColor=#d5e8d4;strokeColor=#82b366;" vertex="1" parent="1">
          <mxGeometry x="65" y="612" width="208" height="60" as="geometry" />
        </mxCell>
        <mxCell id="CePjHbMSi5g3igxXNFq3-24" style="edgeStyle=orthogonalEdgeStyle;rounded=0;orthogonalLoop=1;jettySize=auto;html=1;entryX=0.5;entryY=0;entryDx=0;entryDy=0;" edge="1" parent="1" source="CePjHbMSi5g3igxXNFq3-20" target="CePjHbMSi5g3igxXNFq3-15">
          <mxGeometry relative="1" as="geometry">
            <mxPoint x="789" y="394" as="targetPoint" />
            <Array as="points">
              <mxPoint x="790" y="650" />
              <mxPoint x="790" y="436" />
            </Array>
          </mxGeometry>
        </mxCell>
        <mxCell id="CePjHbMSi5g3igxXNFq3-20" value="No free slot" style="rounded=1;whiteSpace=wrap;html=1;fillColor=#f8cecc;strokeColor=#b85450;" vertex="1" parent="1">
          <mxGeometry x="544" y="612" width="208" height="60" as="geometry" />
        </mxCell>
        <mxCell id="CePjHbMSi5g3igxXNFq3-22" value="Backend checks fo rempty slots in a day or week" style="text;html=1;strokeColor=none;fillColor=none;align=center;verticalAlign=middle;whiteSpace=wrap;rounded=0;" vertex="1" parent="1">
          <mxGeometry x="34" y="518" width="139" height="30" as="geometry" />
        </mxCell>
        <mxCell id="CePjHbMSi5g3igxXNFq3-23" value="Backend didnt find free slots" style="text;html=1;strokeColor=none;fillColor=none;align=center;verticalAlign=middle;whiteSpace=wrap;rounded=0;" vertex="1" parent="1">
          <mxGeometry x="721" y="443" width="60" height="30" as="geometry" />
        </mxCell>
        <mxCell id="CePjHbMSi5g3igxXNFq3-28" style="edgeStyle=orthogonalEdgeStyle;rounded=0;orthogonalLoop=1;jettySize=auto;html=1;" edge="1" parent="1" source="CePjHbMSi5g3igxXNFq3-25" target="CePjHbMSi5g3igxXNFq3-27">
          <mxGeometry relative="1" as="geometry" />
        </mxCell>
        <mxCell id="CePjHbMSi5g3igxXNFq3-25" value="Backend Communication with AWS and Frontend shows appointment scheduled" style="rounded=1;whiteSpace=wrap;html=1;fillColor=#e1d5e7;strokeColor=#9673a6;" vertex="1" parent="1">
          <mxGeometry x="266" y="753" width="303" height="74" as="geometry" />
        </mxCell>
        <mxCell id="CePjHbMSi5g3igxXNFq3-27" value="" style="ellipse;html=1;shape=endState;fillColor=#000000;strokeColor=#ff0000;" vertex="1" parent="1">
          <mxGeometry x="402.5" y="893" width="30" height="30" as="geometry" />
        </mxCell>
        <mxCell id="CePjHbMSi5g3igxXNFq3-29" value="End" style="text;html=1;strokeColor=none;fillColor=none;align=center;verticalAlign=middle;whiteSpace=wrap;rounded=0;" vertex="1" parent="1">
          <mxGeometry x="429" y="893" width="60" height="30" as="geometry" />
        </mxCell>
      </root>
    </mxGraphModel>
  </diagram>
</mxfile>
